# Blender v2.79 (sub 0) OBJ File: ''
# www.blender.org
mtllib Tree leaf.mtl
o rdmobj01
v 26.200405 -54.396099 182.283890
v -12.636343 -27.644850 105.706993
v 59.686951 -0.423424 180.709106
v 20.086323 24.790855 105.456032
v 19.519749 -60.017605 142.480576
v -1.141589 -20.501259 111.592163
v 46.437046 -35.005028 153.366547
v 25.144833 3.424619 122.838776
v 14.828117 -11.859943 185.500076
v -21.998579 -15.102791 119.359497
v 60.354973 -14.008422 157.423920
v 22.807426 -16.702374 92.868317
v -110.673363 0.725946 191.732742
v 21.276669 19.762333 217.074295
v -145.443954 95.325180 263.342438
v -11.699388 115.117371 290.555054
v -70.025253 -29.404842 189.258774
v 9.816647 77.358757 214.600342
v -161.503845 12.900562 260.868469
v -80.927437 121.467377 288.081085
v -10.988747 -14.470554 189.259262
v -102.265984 82.697838 214.600342
v -68.536301 -97.212891 260.868439
v -161.461700 0.991734 288.081024
v -24.987295 51.258747 189.259293
v -143.014175 -10.731584 214.600311
v 39.366898 -26.307991 260.868469
v -80.099388 -89.609665 288.081024
v -75.271881 50.260372 178.565887
v -34.065102 -75.245438 207.318130
v 0.114730 103.193108 256.554077
v 42.155109 -23.920553 287.252991
v -30.937550 99.495872 217.418762
v -25.515768 -61.815453 218.950821
v -191.311768 90.425537 198.960556
v -187.596771 -73.818970 199.380127
v -29.841080 99.495880 203.981110
v -24.083717 -61.815453 203.524902
v -184.270905 90.425529 241.504059
v -180.698639 -73.818993 240.627701
v -27.277460 2.571387 250.333572
v -65.894196 10.023021 175.463501
v -152.073349 16.362782 281.890503
v -192.815964 25.329559 206.111160
v -37.173706 43.883633 265.245422
v -34.043564 20.723326 186.656784
v -140.858231 -37.980465 270.993896
v -139.738098 -61.662540 190.903122
v -139.085327 15.722197 268.955811
v -126.767838 1.112912 183.539673
v 3.141705 21.018347 274.019531
v 17.525902 5.011960 187.284164
v -60.761360 87.667587 270.028687
v -51.631588 76.806564 184.067535
v -70.374756 -54.412388 273.606049
v -62.417953 -67.196182 186.096939
v -74.428085 20.705626 261.432343
v -77.742279 10.474219 196.274246
v -169.620667 -30.184900 264.143555
v -174.642258 -40.434639 197.812485
v -63.650864 14.542011 261.432343
v -74.389984 13.969563 196.274246
v -145.274780 85.174332 264.143555
v -156.643311 86.188812 197.812485
v 10.912657 -33.499180 217.418732
v -150.440125 -37.513096 218.950851
v 3.242075 126.948196 198.960556
v -161.028366 124.666260 199.380188
v -77.850479 -22.445724 281.146301
v -84.376244 -25.725145 196.252426
v -39.764404 109.911377 260.173584
v -44.776688 107.930725 173.499619
v -83.943428 -6.717081 281.146301
v -90.934013 -4.603992 196.252426
v 34.792263 63.074810 260.173523
v 29.792931 65.088036 173.499619
v 60.768997 -36.162804 323.794434
v 237.702332 -6.949599 296.678925
v 53.704239 109.009132 436.745728
v 233.814606 139.381927 411.323883
v 110.079536 -82.401138 301.547089
v 222.197159 81.437469 298.664673
v 32.477608 -17.479713 440.871094
v 146.454346 149.126389 440.175751
v 181.436752 -86.449387 303.907227
v 80.705452 62.664825 380.605591
v 146.039841 -213.425583 427.451202
v 44.203926 -62.720791 507.445038
v 166.100739 41.384624 280.601746
v 32.096306 -53.745411 369.740967
v 282.333710 -77.648827 347.454010
v 147.484070 -174.791656 439.790558
v 71.466461 85.668091 282.501648
v 36.300865 -115.725449 286.294800
v 238.468399 84.512901 319.809662
v 204.254089 -120.253761 325.313293
v 188.603119 115.409439 351.242767
v 196.121002 -132.138428 350.791504
v -20.207727 101.489723 400.880432
v -15.374868 -150.559036 399.719513
v 183.176666 115.409462 332.571716
v 190.107819 -132.138428 329.277679
v 10.047482 101.489716 455.103333
v 14.048235 -150.559036 452.257355
v 209.787735 -33.330780 394.024902
v 123.921509 -21.895525 310.796753
v 70.504814 -12.166558 494.712036
v -18.465490 1.593820 411.243561
v 205.013031 30.066904 418.780762
v 169.195480 -5.474926 311.111725
v 78.948280 -95.561447 474.769409
v 39.871243 -131.903763 366.005585
v 64.448944 -13.149573 441.375061
v 36.609531 -35.568954 320.205902
v 243.919220 -5.022080 382.074219
v 217.983292 -29.585457 258.161316
v 162.415710 97.257576 406.399811
v 130.335526 80.590637 285.976379
v 152.265869 -120.778053 415.704742
v 117.944382 -140.395950 293.735504
v 156.746948 -5.502038 430.952942
v 119.699509 -21.203070 344.432922
v 39.710457 -83.598541 478.887787
v -0.053320 -99.327728 391.576294
v 170.152557 -14.960690 425.940491
v 123.869186 -15.839202 342.873901
v 69.993256 93.431305 467.565552
v 22.334679 94.988342 383.205566
v 107.179352 -90.767891 226.495651
v -81.903809 -10.188045 287.396729
v 221.160339 94.988869 344.567078
v 30.074265 179.909683 406.812866
v 162.451279 -71.722015 459.188629
v 111.436905 -76.754738 347.488556
v 199.227936 131.393143 413.130829
v 149.196030 128.353302 298.321320
v 139.198593 -47.584805 432.206207
v 87.605606 -44.342106 320.722534
v 276.292053 59.517254 348.642212
v 226.276382 62.606945 233.826645
v 129.617203 -70.002907 341.381897
v -18.952457 112.292343 384.788513
v 35.091679 -225.235077 466.878113
v -116.182632 -40.994446 513.560852
v 104.713020 131.933640 427.070343
v 100.708961 -158.289246 340.891602
v -158.157150 125.843254 427.647980
v -165.403259 -169.060379 338.406494
v 98.785675 124.787651 316.314209
v 108.138969 -161.593292 414.158386
v -152.493973 129.533875 382.365875
v -146.680923 -162.301468 481.271271
v 125.425186 -41.624954 455.805328
v 53.170837 -25.210472 300.101318
v -113.020836 -11.245206 519.085327
v -189.311783 8.506842 361.463623
v 101.613197 39.474274 504.857788
v 107.904274 -3.976430 366.280487
v -66.797928 -114.109550 513.528320
v -63.745865 -158.538696 372.273285
v 63.247017 121.616661 512.960938
v 79.391769 101.240311 361.464172
v 47.585781 -144.937531 519.134644
v 61.850014 -168.920685 364.890564
v 25.518215 -4.009609 467.788544
v 21.140930 -23.204494 352.809814
v -129.059433 -99.484222 471.222595
v -136.190216 -118.714020 354.150909
v 43.014694 -15.572994 467.941467
v 26.583134 -16.647026 352.857635
v -89.536514 116.938507 471.567596
v -106.971069 118.842499 354.406067
v 147.218384 -35.946327 266.973083
v -81.546181 -40.891754 262.623596
v 136.592041 171.535797 430.870728
v -96.294434 169.841629 427.261902
v 35.333076 -84.965096 532.327393
v 26.046329 -91.117447 382.492798
v 97.485184 163.348343 495.874878
v 90.682571 159.631851 342.920685
v -55.399929 11.500756 303.534363
v 110.625130 -45.560974 251.795090
v -4.875200 41.604839 462.776611
v 164.255188 -17.460352 412.187408
v 88.894402 75.277969 303.680176
v -23.914654 -87.054436 318.535095
v 112.702316 82.978188 470.947266
v -2.718812 -81.117996 487.997803
v 142.510742 30.829910 278.867401
v -101.033562 -17.293283 270.018555
v 172.673752 -154.282669 442.897491
v -74.914230 -203.891403 436.899506
v 26.767235 2.587605 413.567688
v -19.096729 -65.088493 250.029236
v -83.636604 -99.284584 491.881409
v -132.553436 -168.303436 326.229706
v 116.691147 -5.773871 257.994202
v -87.710754 -5.558379 263.492279
v 145.928085 -146.825729 350.365784
v -61.608200 -147.449051 358.027985
v 116.691147 -17.235731 294.216125
v -87.710754 -16.876377 299.706604
v 145.928085 -155.820908 390.248352
v -61.608200 -156.243561 397.923737
v 64.900047 117.766083 267.203796
v 102.366058 -141.574524 271.774658
v -195.818237 79.238304 416.752838
v -161.574463 -185.230026 421.749451
v 160.576248 4.352836 379.964966
v -25.382927 -4.580196 376.921051
v 151.858444 77.051842 499.607086
v -37.504517 70.072945 497.125000
vt 0.890005 -0.013035
vt 0.890003 -0.967156
vt 0.205213 -0.013028
vt 0.205212 -0.967148
vt 0.890005 -0.013035
vt 0.890003 -0.967156
vt 0.205213 -0.013028
vt 0.205212 -0.967148
vt 0.890005 -0.013035
vt 0.890003 -0.967156
vt 0.205213 -0.013028
vt 0.205212 -0.967148
vt 0.064514 -0.958976
vt 0.888814 -0.957113
vt 0.066669 -0.024651
vt 0.888815 -0.020005
vt 0.064514 -0.958976
vt 0.888814 -0.957113
vt 0.066669 -0.024651
vt 0.888815 -0.020005
vt 0.064514 -0.958976
vt 0.888814 -0.957113
vt 0.066669 -0.024651
vt 0.888815 -0.020005
vt 0.064514 -0.958976
vt 0.888814 -0.957113
vt 0.066669 -0.024651
vt 0.888815 -0.020005
vt 0.064514 -0.958976
vt 0.888814 -0.957113
vt 0.066669 -0.024651
vt 0.888815 -0.020005
vt 0.064514 -0.958976
vt 0.888814 -0.957113
vt 0.066669 -0.024651
vt 0.888815 -0.020005
vt 0.064514 -0.958976
vt 0.888814 -0.957113
vt 0.066669 -0.024651
vt 0.888815 -0.020005
vt 0.064514 -0.958976
vt 0.888814 -0.957113
vt 0.066669 -0.024651
vt 0.888815 -0.020005
vt 0.064514 -0.958976
vt 0.888814 -0.957113
vt 0.066669 -0.024651
vt 0.888815 -0.020005
vt 0.064514 -0.958976
vt 0.888814 -0.957113
vt 0.066669 -0.024651
vt 0.888815 -0.020005
vt 0.064514 -0.958976
vt 0.888814 -0.957113
vt 0.066669 -0.024651
vt 0.888815 -0.020005
vt 0.064514 -0.958976
vt 0.888814 -0.957113
vt 0.066669 -0.024651
vt 0.888815 -0.020005
vt 0.064514 -0.958976
vt 0.888814 -0.957113
vt 0.066669 -0.024651
vt 0.888815 -0.020005
vt 0.064514 -0.958976
vt 0.888814 -0.957113
vt 0.066669 -0.024651
vt 0.888815 -0.020005
vt 0.064514 -0.958976
vt 0.888814 -0.957113
vt 0.066669 -0.024651
vt 0.888815 -0.020005
vt 0.064514 -0.958976
vt 0.888814 -0.957113
vt 0.066669 -0.024651
vt 0.888815 -0.020005
vt 0.064514 -0.958976
vt 0.888814 -0.957113
vt 0.066669 -0.024651
vt 0.888815 -0.020005
vt 0.064514 -0.958976
vt 0.888814 -0.957113
vt 0.066669 -0.024651
vt 0.888815 -0.020005
vt 0.064514 -0.958976
vt 0.888814 -0.957113
vt 0.066669 -0.024651
vt 0.888815 -0.020005
vt 0.064514 -0.958976
vt 0.888814 -0.957113
vt 0.066669 -0.024651
vt 0.888815 -0.020005
vt 0.064514 -0.958976
vt 0.888814 -0.957113
vt 0.066669 -0.024651
vt 0.888815 -0.020005
vt 0.064514 -0.958976
vt 0.888814 -0.957113
vt 0.066669 -0.024651
vt 0.888815 -0.020005
vt 0.064514 -0.958976
vt 0.888814 -0.957113
vt 0.066669 -0.024651
vt 0.888815 -0.020005
vt 0.064514 -0.958976
vt 0.888814 -0.957113
vt 0.066669 -0.024651
vt 0.888815 -0.020005
vt 0.064514 -0.958976
vt 0.888814 -0.957113
vt 0.066669 -0.024651
vt 0.888815 -0.020005
vt 0.064514 -0.958976
vt 0.888814 -0.957113
vt 0.066669 -0.024651
vt 0.888815 -0.020005
vt 0.064514 -0.958976
vt 0.888814 -0.957113
vt 0.066669 -0.024651
vt 0.888815 -0.020005
vt 0.064514 -0.958976
vt 0.888814 -0.957113
vt 0.066669 -0.024651
vt 0.888815 -0.020005
vt 0.064514 -0.958976
vt 0.888814 -0.957113
vt 0.066669 -0.024651
vt 0.888815 -0.020005
vt 0.064514 -0.958976
vt 0.888814 -0.957113
vt 0.066669 -0.024651
vt 0.888815 -0.020005
vt 0.064514 -0.958976
vt 0.888814 -0.957113
vt 0.066669 -0.024651
vt 0.888815 -0.020005
vt 0.064514 -0.958976
vt 0.888814 -0.957113
vt 0.066669 -0.024651
vt 0.888815 -0.020005
vt 0.064514 -0.958976
vt 0.888814 -0.957113
vt 0.066669 -0.024651
vt 0.888815 -0.020005
vt 0.064514 -0.958976
vt 0.888814 -0.957113
vt 0.066669 -0.024651
vt 0.888815 -0.020005
vt 0.064514 -0.958976
vt 0.888814 -0.957113
vt 0.066669 -0.024651
vt 0.888815 -0.020005
vt 0.064514 -0.958976
vt 0.888814 -0.957113
vt 0.066669 -0.024651
vt 0.888815 -0.020005
vt 0.064514 -0.958976
vt 0.888814 -0.957113
vt 0.066669 -0.024651
vt 0.888815 -0.020005
vt 0.064514 -0.958976
vt 0.888814 -0.957113
vt 0.066669 -0.024651
vt 0.888815 -0.020005
vt 0.064514 -0.958976
vt 0.888814 -0.957113
vt 0.066669 -0.024651
vt 0.888815 -0.020005
vt 0.064514 -0.958976
vt 0.888814 -0.957113
vt 0.066669 -0.024651
vt 0.888815 -0.020005
vt 0.064514 -0.958976
vt 0.888814 -0.957113
vt 0.066669 -0.024651
vt 0.888815 -0.020005
vt 0.064514 -0.958976
vt 0.888814 -0.957113
vt 0.066669 -0.024651
vt 0.888815 -0.020005
vt 0.064514 -0.958976
vt 0.888814 -0.957113
vt 0.066669 -0.024651
vt 0.888815 -0.020005
vt 0.064514 -0.958976
vt 0.888814 -0.957113
vt 0.066669 -0.024651
vt 0.888815 -0.020005
vt 0.064514 -0.958976
vt 0.888814 -0.957113
vt 0.066669 -0.024651
vt 0.888815 -0.020005
vt 0.064514 -0.958976
vt 0.888814 -0.957113
vt 0.066669 -0.024651
vt 0.888815 -0.020005
vt 0.064514 -0.958976
vt 0.888814 -0.957113
vt 0.066669 -0.024651
vt 0.888815 -0.020005
vt 0.064514 -0.958976
vt 0.888814 -0.957113
vt 0.066669 -0.024651
vt 0.888815 -0.020005
vt 0.064514 -0.958976
vt 0.888814 -0.957113
vt 0.066669 -0.024651
vt 0.888815 -0.020005
vt 0.064514 -0.958976
vt 0.888814 -0.957113
vt 0.066669 -0.024651
vt 0.888815 -0.020005
vn 0.7167 -0.4600 -0.5242
vn 0.7167 -0.4599 -0.5242
vn 0.7186 -0.4510 -0.5293
vn 0.5792 -0.2921 -0.7611
vn 0.5792 -0.2920 -0.7611
vn 0.5829 -0.2823 -0.7619
vn -0.0126 -0.9984 0.0560
vn -0.0126 -0.9984 0.0559
vn -0.0082 -0.9989 0.0465
vn -0.0617 -0.6167 0.7847
vn -0.0617 -0.6167 0.7848
vn -0.0663 -0.6233 0.7791
vn 0.3924 -0.4797 0.7847
vn 0.3924 -0.4797 0.7848
vn 0.3939 -0.4876 0.7791
vn 0.5406 0.3032 0.7848
vn 0.5406 0.3032 0.7847
vn 0.5486 0.3032 0.7791
vn -0.1477 0.6020 0.7848
vn -0.1477 0.6020 0.7847
vn -0.1456 0.6097 0.7791
vn -0.6953 -0.0643 0.7158
vn -0.6954 -0.0643 0.7158
vn -0.7025 -0.0611 0.7091
vn 0.1146 -0.0056 -0.9934
vn 0.1147 -0.0056 -0.9934
vn 0.1199 0.0002 -0.9928
vn -0.2358 -0.0057 -0.9718
vn -0.2305 0.0002 -0.9731
vn 0.1191 0.9922 0.0373
vn 0.1307 0.9903 0.0469
vn -0.6089 0.7540 -0.2464
vn -0.6036 0.7623 -0.2338
vn 0.0305 -0.9845 0.1728
vn 0.0218 -0.9825 0.1849
vn -0.9915 0.0642 -0.1134
vn -0.9922 0.0729 -0.1009
vn -0.4709 0.8748 -0.1134
vn -0.4709 0.8749 -0.1134
vn -0.4640 0.8801 -0.1009
vn 0.6480 0.7532 -0.1134
vn 0.6554 0.7486 -0.1009
vn -0.0066 -0.1146 -0.9934
vn -0.0009 -0.1199 -0.9928
vn 0.9564 -0.2851 -0.0625
vn 0.9565 -0.2851 -0.0625
vn 0.9554 -0.2913 -0.0486
vn 0.4975 -0.8652 -0.0625
vn 0.4925 -0.8690 -0.0486
vn 0.2167 -0.5929 0.7756
vn 0.2101 -0.5995 0.7723
vn 0.6738 -0.4508 0.5854
vn 0.6736 -0.4584 0.5798
vn 0.8082 0.2792 0.5185
vn 0.8136 0.2791 0.5100
vn 0.1270 0.5771 0.8068
vn 0.1270 0.5771 0.8067
vn 0.1272 0.5849 0.8011
vn -0.2173 0.0563 0.9745
vn -0.2242 0.0636 0.9725
vn -0.2309 -0.0052 -0.9730
vn -0.2254 0.0002 -0.9743
vn -0.5774 -0.0053 -0.8164
vn -0.5727 0.0002 -0.8198
vn 0.1425 0.9897 -0.0110
vn 0.1585 0.9873 -0.0062
vn -0.7057 0.7085 0.0009
vn -0.6967 0.7173 0.0106
vn 0.0972 -0.9824 0.1594
vn 0.0972 -0.9824 0.1595
vn 0.0922 -0.9802 0.1750
vn -0.9667 0.0557 0.2498
vn -0.9633 0.0632 0.2609
vn -0.5321 0.8434 0.0748
vn -0.5210 0.8494 0.0842
vn 0.6167 0.7046 -0.3510
vn 0.6166 0.7046 -0.3511
vn 0.6277 0.6994 -0.3417
vn -0.0339 0.5508 -0.8339
vn -0.0338 0.5508 -0.8339
vn -0.0309 0.5447 -0.8381
vn 0.8851 -0.2494 -0.3930
vn 0.8889 -0.2549 -0.3806
vn 0.4950 -0.8312 -0.2532
vn 0.4951 -0.8355 -0.2382
vn 0.5687 0.2792 0.7737
vn 0.5768 0.2791 0.7677
vn -0.0087 0.2848 -0.9586
vn -0.0087 0.2848 -0.9585
vn -0.0028 0.2897 -0.9571
vn -0.2465 -0.3205 -0.9146
vn -0.2408 -0.3158 -0.9177
vn 0.1369 0.9897 0.0408
vn 0.1370 0.9897 0.0408
vn 0.1502 0.9873 0.0510
vn -0.6591 0.7085 -0.2521
vn -0.6542 0.7173 -0.2397
vn -0.9920 0.0557 -0.1132
vn -0.9928 0.0632 -0.1016
vn -0.5236 0.8434 -0.1209
vn -0.5236 0.8434 -0.1208
vn -0.5166 0.8494 -0.1081
vn 0.7015 0.7046 -0.1067
vn 0.7015 0.7046 -0.1068
vn 0.7085 0.6994 -0.0941
vn 0.0015 0.6199 -0.7847
vn 0.0077 0.6160 -0.7877
vn 0.9671 -0.2494 -0.0497
vn 0.9663 -0.2549 -0.0368
vn -0.2426 -0.9363 0.2540
vn -0.2427 -0.9363 0.2540
vn -0.2524 -0.9352 0.2482
vn -0.8140 0.5739 0.0894
vn -0.8112 0.5790 0.0812
vn -0.1540 0.6411 0.7518
vn -0.1479 0.6477 0.7474
vn -0.7092 0.6991 -0.0904
vn -0.7093 0.6991 -0.0904
vn -0.7092 0.6992 -0.0904
vn -0.7018 0.7070 -0.0873
vn 0.0230 0.5510 0.8342
vn 0.0230 0.5511 0.8342
vn 0.0289 0.5579 0.8294
vn 0.0230 0.5727 0.8194
vn 0.0230 0.5727 0.8195
vn 0.0289 0.5794 0.8145
vn -0.4862 -0.0856 -0.8697
vn -0.4862 -0.0856 -0.8696
vn -0.4826 -0.0790 -0.8723
vn -0.0325 0.8531 -0.5207
vn -0.0324 0.8531 -0.5208
vn -0.0243 0.8481 -0.5292
usemtl green_leaves_dif
s 1
f 1/1/1 2/2/2 3/3/2
f 4/4/3 3/3/2 2/2/2
f 5/5/4 6/6/5 7/7/5
f 8/8/6 7/7/5 6/6/5
f 9/9/7 10/10/8 11/11/8
f 12/12/9 11/11/8 10/10/8
f 13/13/10 14/14/10 15/15/11
f 16/16/12 15/15/11 14/14/10
f 17/17/13 18/18/14 19/19/14
f 20/20/15 19/19/14 18/18/14
f 21/21/16 22/22/17 23/23/16
f 24/24/18 23/23/16 22/22/17
f 25/25/19 26/26/20 27/27/19
f 28/28/21 27/27/19 26/26/20
f 29/29/22 30/30/23 31/31/23
f 32/32/24 31/31/23 30/30/23
f 33/33/25 34/34/26 35/35/26
f 36/36/27 35/35/26 34/34/26
f 37/37/28 38/38/28 39/39/28
f 40/40/29 39/39/28 38/38/28
f 41/41/30 42/42/30 43/43/30
f 44/44/31 43/43/30 42/42/30
f 45/45/32 46/46/32 47/47/32
f 48/48/33 47/47/32 46/46/32
f 49/49/34 50/50/34 51/51/34
f 52/52/35 51/51/34 50/50/34
f 53/53/36 54/54/36 55/55/36
f 56/56/37 55/55/36 54/54/36
f 57/57/38 58/58/39 59/59/38
f 60/60/40 59/59/38 58/58/39
f 61/61/41 62/62/41 63/63/41
f 64/64/42 63/63/41 62/62/41
f 65/65/43 66/66/43 67/67/43
f 68/68/44 67/67/43 66/66/43
f 69/69/45 70/70/45 71/71/46
f 72/72/47 71/71/46 70/70/45
f 73/73/48 74/74/48 75/75/48
f 76/76/49 75/75/48 74/74/48
f 77/77/50 78/78/50 79/79/50
f 80/80/51 79/79/50 78/78/50
f 81/81/52 82/82/52 83/83/52
f 84/84/53 83/83/52 82/82/52
f 85/85/54 86/86/54 87/87/54
f 88/88/55 87/87/54 86/86/54
f 89/89/56 90/90/57 91/91/57
f 92/92/58 91/91/57 90/90/57
f 93/93/59 94/94/59 95/95/59
f 96/96/60 95/95/59 94/94/59
f 97/97/61 98/98/61 99/99/61
f 100/100/62 99/99/61 98/98/61
f 101/101/63 102/102/63 103/103/63
f 104/104/64 103/103/63 102/102/63
f 105/105/65 106/106/65 107/107/65
f 108/108/66 107/107/65 106/106/65
f 109/109/67 110/110/67 111/111/67
f 112/112/68 111/111/67 110/110/67
f 113/113/69 114/114/70 115/115/70
f 116/116/71 115/115/70 114/114/70
f 117/117/72 118/118/72 119/119/72
f 120/120/73 119/119/72 118/118/72
f 121/121/74 122/122/74 123/123/74
f 124/124/75 123/123/74 122/122/74
f 125/125/76 126/126/77 127/127/76
f 128/128/78 127/127/76 126/126/77
f 129/129/79 130/130/80 131/131/80
f 132/132/81 131/131/80 130/130/80
f 133/133/82 134/134/82 135/135/82
f 136/136/83 135/135/82 134/134/82
f 137/137/84 138/138/84 139/139/84
f 140/140/85 139/139/84 138/138/84
f 141/141/86 142/142/86 143/143/86
f 144/144/87 143/143/86 142/142/86
f 145/145/88 146/146/89 147/147/88
f 148/148/90 147/147/88 146/146/89
f 149/149/91 150/150/91 151/151/91
f 152/152/92 151/151/91 150/150/91
f 153/153/93 154/154/93 155/155/94
f 156/156/95 155/155/94 154/154/93
f 157/157/96 158/158/96 159/159/96
f 160/160/97 159/159/96 158/158/96
f 161/161/98 162/162/98 163/163/98
f 164/164/99 163/163/98 162/162/98
f 165/165/100 166/166/100 167/167/101
f 168/168/102 167/167/101 166/166/100
f 169/169/103 170/170/103 171/171/104
f 172/172/105 171/171/104 170/170/103
f 173/173/106 174/174/106 175/175/106
f 176/176/107 175/175/106 174/174/106
f 177/177/108 178/178/108 179/179/108
f 180/180/109 179/179/108 178/178/108
f 181/181/110 182/182/111 183/183/110
f 184/184/112 183/183/110 182/182/111
f 185/185/113 186/186/113 187/187/113
f 188/188/114 187/187/113 186/186/113
f 189/189/115 190/190/115 191/191/115
f 192/192/116 191/191/115 190/190/115
f 193/193/117 194/194/118 195/195/119
f 196/196/120 195/195/119 194/194/118
f 197/197/121 198/198/121 199/199/122
f 200/200/123 199/199/122 198/198/121
f 201/201/124 202/202/125 203/203/124
f 204/204/126 203/203/124 202/202/125
f 205/205/127 206/206/127 207/207/128
f 208/208/129 207/207/128 206/206/127
f 209/209/130 210/210/131 211/211/130
f 212/212/132 211/211/130 210/210/131
